<svg xmlns="http://www.w3.org/2000/svg" width="193" height="52" viewBox="0 0 337 80" version="1.1"><path d="M 115.022 29.695 C 112.668 30.917, 111.251 32.540, 110.637 34.719 C 109.280 39.528, 111.717 42.571, 118.506 44.545 C 121.857 45.519, 124 46.699, 124 47.571 C 124 49.758, 119.217 49.320, 117.768 47 C 116.934 45.665, 115.436 45, 113.259 45 C 110.534 45, 110 45.373, 110 47.277 C 110 52.801, 116.651 56.742, 123.906 55.516 C 129.029 54.650, 132 51.775, 132 47.684 C 132 42.858, 129.711 40.370, 124.016 39.004 C 118.688 37.726, 116.975 35, 121.500 35 C 122.875 35, 124 35.450, 124 36 C 124 36.550, 125.800 37, 128 37 C 132.699 37, 133.172 35.474, 129.717 31.457 C 126.688 27.936, 119.967 27.130, 115.022 29.695 M 133.796 28.538 C 133.500 28.833, 134.943 34.796, 137.003 41.788 L 140.748 54.500 144.716 54.800 L 148.684 55.100 150.680 48.300 L 152.677 41.500 154.638 48 C 156.591 54.476, 156.614 54.501, 160.549 54.787 L 164.500 55.075 168.245 42.332 C 170.361 35.132, 171.612 29.212, 171.122 28.722 C 170.645 28.245, 168.739 28, 166.886 28.177 C 163.596 28.492, 163.479 28.663, 161.880 35.500 C 160.305 42.232, 160.199 42.392, 159.121 39.685 C 158.504 38.137, 157.997 36.562, 157.994 36.185 C 157.991 35.808, 157.520 33.813, 156.947 31.750 C 156.051 28.520, 155.504 28, 153.012 28 C 149.507 28, 149.164 28.508, 147.011 36.890 L 145.314 43.500 143.994 37.500 C 142.118 28.971, 141.468 28, 137.631 28 C 135.818 28, 134.091 28.242, 133.796 28.538 M 174 41.440 L 174 55 178.029 55 L 182.058 55 181.779 41.750 L 181.500 28.500 177.750 28.190 L 174 27.879 174 41.440 M 184.667 28.667 C 184.300 29.033, 184 35.108, 184 42.167 L 184 55 188 55 L 192 55 192 50 L 192 45 197 45 C 201.889 45, 202 44.933, 202 42 C 202 39.067, 201.889 39, 197 39 C 192.667 39, 192 38.733, 192 37 C 192 35.242, 192.667 35, 197.500 35 L 203 35 203 31.500 L 203 28 194.167 28 C 189.308 28, 185.033 28.300, 184.667 28.667 M 204.397 29.409 C 203.141 32.681, 204.437 34.493, 208.258 34.810 L 212 35.121 212 45.060 L 212 55 216 55 L 220 55 220 45 L 220 35 224.063 35 C 228.045 35, 228.120 34.935, 227.813 31.750 L 227.500 28.500 216.231 28.217 C 207.040 27.986, 204.858 28.206, 204.397 29.409 M 233.898 30.282 C 227.103 34.846, 229.554 43.265, 238.074 44.628 C 242.621 45.355, 244.460 46.446, 243.569 47.888 C 242.365 49.836, 237.865 49.200, 237.290 47 C 236.896 45.493, 235.926 45, 233.352 45 C 229.397 45, 228.276 46.775, 230.086 50.172 C 231.811 53.409, 233.890 54.775, 238.229 55.525 C 245.299 56.746, 252 52.760, 252 47.333 C 252 43.967, 248.019 40.122, 243.076 38.715 C 238.086 37.295, 236.407 35, 240.358 35 C 241.746 35, 243.160 35.450, 243.500 36 C 243.840 36.550, 245.868 37, 248.007 37 L 251.896 37 250.840 33.970 C 248.784 28.073, 240.026 26.166, 233.898 30.282 M 254 41.440 L 254 55 258 55 C 261.990 55, 262 54.990, 262 51.059 C 262 45.475, 263.399 45.299, 266.447 50.500 C 268.947 54.766, 269.316 55, 273.542 55 C 275.994 55, 278 54.784, 278 54.519 C 278 54.255, 276.410 51.554, 274.468 48.517 C 272.525 45.480, 270.686 42.345, 270.381 41.551 C 270.074 40.749, 271.613 37.766, 273.842 34.842 C 276.050 31.947, 277.637 29.222, 277.369 28.789 C 276.757 27.798, 270.852 27.780, 269.468 28.765 C 268.901 29.169, 267.015 31.465, 265.278 33.866 L 262.119 38.232 261.810 33.366 C 261.502 28.529, 261.478 28.498, 257.750 28.190 L 254 27.879 254 41.440 M 280 41.440 L 280 55 284.029 55 L 288.058 55 287.779 41.750 L 287.500 28.500 283.750 28.190 L 280 27.879 280 41.440 M 290.702 28.632 C 290.316 29.018, 290 35.108, 290 42.167 L 290 55 300 55 L 310 55 310 52 L 310 49 304 49 C 298.667 49, 298 48.778, 298 47 C 298 45.242, 298.667 45, 303.500 45 C 308.944 45, 309 44.970, 309 42 C 309 39.030, 308.944 39, 303.500 39 C 298.667 39, 298 38.758, 298 37 C 298 35.220, 298.667 35, 304.063 35 L 310.127 35 309.813 31.750 L 309.500 28.500 300.452 28.215 C 295.475 28.058, 291.087 28.246, 290.702 28.632 M 317.384 29.380 C 313.373 31.196, 311.455 36.077, 313.257 39.879 C 314.168 41.800, 316.035 42.999, 320.250 44.368 C 323.576 45.448, 326 46.818, 326 47.618 C 326 49.762, 321.195 49.285, 319.768 47 C 318.934 45.665, 317.436 45, 315.259 45 C 312.434 45, 312 45.339, 312 47.545 C 312 53.293, 320.166 57.109, 327.968 55.009 C 332.374 53.822, 334.339 51.205, 334.210 46.692 C 334.095 42.639, 331.636 40.352, 325.917 38.980 C 320.673 37.722, 319.020 35, 323.500 35 C 324.875 35, 326 35.450, 326 36 C 326 36.550, 327.800 37, 330 37 C 334.699 37, 335.172 35.474, 331.717 31.457 C 328.931 28.219, 322.128 27.232, 317.384 29.380" stroke="none" fill="#ffffff" fill-rule="evenodd"/><path d="M 31.675 20.658 C 31.333 21, 32.841 23.526, 35.027 26.271 C 39.064 31.342, 39.797 33, 38 33 C 37.450 33, 37 33.916, 37 35.035 C 37 36.800, 37.282 36.920, 39.125 35.933 C 40.935 34.964, 41.640 35.199, 43.875 37.513 C 45.319 39.008, 45.825 40.022, 45 39.766 C 43.567 39.322, 27.350 43.316, 26.293 44.374 C 25.677 44.989, 35.405 47.893, 40.054 48.482 C 46.981 49.358, 78.845 41.325, 79.648 38.500 C 79.804 37.950, 79.297 36.660, 78.521 35.633 C 77.329 34.058, 76.635 33.932, 74.076 34.823 C 72.209 35.474, 70.821 35.519, 70.463 34.940 C 70.143 34.423, 70.359 34, 70.941 34 C 71.523 34, 72 33.510, 72 32.911 C 72 30.768, 55.672 34.701, 53.895 37.273 C 53.563 37.754, 52.662 37.552, 51.894 36.824 C 51.126 36.096, 48.248 33.716, 45.499 31.535 C 42.749 29.355, 39.772 26.767, 38.883 25.785 C 37.993 24.803, 36.921 24, 36.500 24 C 36.079 24, 34.961 23.108, 34.016 22.018 C 33.070 20.928, 32.017 20.316, 31.675 20.658 M 68.032 27.643 C 68.014 28.822, 68.675 30.045, 69.500 30.362 C 71.403 31.092, 71.416 29.932, 69.532 27.441 C 68.093 25.539, 68.063 25.544, 68.032 27.643 M 68.105 38.085 C 66.787 38.612, 65.938 39.271, 66.216 39.549 C 66.800 40.133, 72 38.313, 72 37.525 C 72 36.803, 70.922 36.958, 68.105 38.085 M 47.500 43 C 48.495 44.100, 49.535 45, 49.810 45 C 50.085 45, 49.495 44.100, 48.500 43 C 47.505 41.900, 46.465 41, 46.190 41 C 45.915 41, 46.505 41.900, 47.500 43 M 70.583 45.250 C 70.388 45.938, 69.737 48.320, 69.135 50.545 C 67.774 55.585, 62.193 62.217, 56.512 65.546 C 51.481 68.494, 48.991 69.171, 43.500 69.085 C 34.690 68.945, 29.361 66.725, 23.693 60.833 C 21.327 58.373, 19.161 56.994, 17.969 57.188 C 16.296 57.460, 16.527 58.014, 19.775 61.520 C 30.423 73.012, 43.118 75.552, 57.401 69.045 C 64.802 65.674, 71.529 56.554, 73.478 47.250 C 74.023 44.647, 73.838 44, 72.548 44 C 71.662 44, 70.778 44.563, 70.583 45.250 M 31.500 51 C 30.780 52.166, 34.361 52.166, 38 51 C 40.135 50.316, 39.888 50.185, 36.309 50.100 C 34.004 50.045, 31.840 50.450, 31.500 51" stroke="none" fill="#2d408e" fill-rule="evenodd"/><path d="M 32.882 12.381 C 26.898 14.519, 22.132 17.947, 18.464 22.751 C 14.659 27.734, 12.369 33.913, 13.365 36.508 C 14.303 38.953, 16.294 37.806, 17.203 34.297 C 18.544 29.122, 24.243 21.717, 29.261 18.628 C 35.730 14.647, 46.486 13.794, 53.134 16.735 C 58.515 19.115, 64.559 24.247, 66.577 28.148 C 67.388 29.717, 68.602 30.993, 69.276 30.985 C 70.148 30.974, 70.112 30.723, 69.152 30.115 C 68.410 29.645, 67.981 28.414, 68.198 27.380 C 68.531 25.797, 68.856 25.974, 70.257 28.500 C 71.171 30.150, 71.938 31.026, 71.960 30.446 C 72.037 28.422, 66.184 20.242, 62.827 17.681 C 56.622 12.949, 51.052 11.042, 43.500 11.066 C 39.650 11.078, 34.872 11.670, 32.882 12.381 M 6.636 38.250 C 10.665 42.574, 14 47.061, 14 48.160 C 14 48.649, 12.863 49.482, 11.474 50.010 C 8.721 51.057, 7.214 53.658, 8.617 54.943 C 9.103 55.388, 11.975 56.016, 15 56.340 C 18.025 56.664, 19.671 56.587, 18.657 56.169 C 17.426 55.661, 19.915 54.944, 26.157 54.008 C 31.296 53.238, 34.481 52.438, 33.235 52.232 C 30.449 51.771, 31.293 50.006, 34.309 49.985 C 35.514 49.976, 37.175 49.497, 38 48.919 C 39.162 48.106, 38.973 48.018, 37.163 48.529 C 32.873 49.742, 28.251 47.994, 18.494 41.471 C 12.771 37.644, 7.752 35, 6.212 35 L 3.608 35 6.636 38.250 M 43.638 38.500 C 43.955 39.325, 44.671 40, 45.229 40 C 45.815 40, 45.718 39.365, 45 38.500 C 44.315 37.675, 43.599 37, 43.409 37 C 43.219 37, 43.322 37.675, 43.638 38.500 M 68.105 38.085 C 66.787 38.612, 65.938 39.271, 66.216 39.549 C 66.800 40.133, 72 38.313, 72 37.525 C 72 36.803, 70.922 36.958, 68.105 38.085 M 47.500 43 C 48.495 44.100, 49.535 45, 49.810 45 C 50.085 45, 49.495 44.100, 48.500 43 C 47.505 41.900, 46.465 41, 46.190 41 C 45.915 41, 46.505 41.900, 47.500 43 M 71.500 43 C 71.840 43.550, 72.568 44, 73.118 44 C 73.668 44, 73.840 43.550, 73.500 43 C 73.160 42.450, 72.432 42, 71.882 42 C 71.332 42, 71.160 42.450, 71.500 43 M 67 43.383 C 67 43.594, 67.901 44.002, 69.001 44.290 C 70.102 44.578, 70.751 44.405, 70.442 43.907 C 69.904 43.036, 67 42.594, 67 43.383 M 38 51 C 35.990 51.644, 35.892 51.806, 37.500 51.830 C 38.600 51.846, 40.400 51.473, 41.500 51 C 44.048 49.905, 41.419 49.905, 38 51 M 67.144 53.750 C 66.053 56.300, 66.078 56.359, 67.484 54.559 C 68.318 53.491, 69 52.254, 69 51.809 C 69 50.289, 68.322 50.999, 67.144 53.750" stroke="none" fill="#2c53a0" fill-rule="evenodd"/><path d="" stroke="none" fill="#fcfcfc" fill-rule="evenodd"/></svg>